<svg xmlns="http://www.w3.org/2000/svg" width="44.684" height="54.363" viewBox="0 0 44.684 54.363">
  <g id="layer1" transform="translate(-1.503 -1036.364)">
    <path id="path7965" d="M27.5,0C22.822,0,17.518.827,13.192,3.36A15,15,0,0,0,5.607,16.818c0,3.444-.293,4.475-.876,5.607a45.025,45.025,0,0,0-3.1,5.873A1.7,1.7,0,0,0,3.2,30.647H6.656c0,.42,0,.6-.007,1.334q0,.017,0,.033v5.515c0,1.594-.217,3.19.889,4.7a4.5,4.5,0,0,0,2.389,1.573,12.28,12.28,0,0,0,3.477.385h3.9v8.474a1.7,1.7,0,0,0,1.7,1.7h18.82a1.7,1.7,0,0,0,1.7-1.7V40.78A19.163,19.163,0,0,1,42.63,29.652a21.333,21.333,0,0,0,3.451-10.79,1.7,1.7,0,0,0,.106-.591C46.187,7.392,37.274.009,27.5.009Zm0,3.384V3.4c8.1,0,15.289,5.816,15.289,14.865,0,4.6-1.42,6.759-3.106,9.689a23.389,23.389,0,0,0-3.557,12.821V50.96H20.7V42.486a1.7,1.7,0,0,0-1.7-1.7H13.4a9.723,9.723,0,0,1-2.522-.246c-.472-.139-.54-.241-.6-.319a8.369,8.369,0,0,1-.239-2.7V31.988c.015-1.378.022-2.135.013-2.6a3.583,3.583,0,0,0-.046-.65,1.45,1.45,0,0,0-.259-.7,2.246,2.246,0,0,0-1.46-.8H6.012c.588-1.047,1.265-2.352,1.739-3.272C8.565,22.383,9,20.484,9,16.8c0-5.372,2.37-8.454,5.906-10.525S23.239,3.386,27.5,3.386Zm-.518,3.4V6.8a23.253,23.253,0,0,0-9.888,1.851,8.813,8.813,0,0,0-3.869,3.258,7.256,7.256,0,0,0-.743,5.468,5.132,5.132,0,0,0,3.623,3.962,12.022,12.022,0,0,0,4.619-.179,13.251,13.251,0,0,1,4.028-.179,4.235,4.235,0,0,1,3.026,2.044,7.919,7.919,0,0,0,3.55,3.046,5.094,5.094,0,0,0,4.054-.146c2.44-1.191,3.841-4,4.088-7.419a10.182,10.182,0,0,0-3.7-8.607A13.891,13.891,0,0,0,26.982,6.791Zm-.027,3.4A10.756,10.756,0,0,1,33.585,12.5a6.549,6.549,0,0,1,2.5,5.76c-.188,2.594-1.321,4.188-2.19,4.612a1.475,1.475,0,0,1-1.327.033A4.7,4.7,0,0,1,30.579,21.1a8.027,8.027,0,0,0-5.229-3.457,15.5,15.5,0,0,0-5.13.166,11.941,11.941,0,0,1-3.358.219c-.6-.136-.77-.132-1.068-1.42a3.586,3.586,0,0,1,.332-2.926,5.588,5.588,0,0,1,2.429-1.971A21.152,21.152,0,0,1,26.955,10.195Z" transform="translate(0 1036.362)" fill="#fff"/>
  </g>
</svg>
