<svg xmlns="http://www.w3.org/2000/svg" width="158.035" height="91.807" viewBox="0 0 158.035 91.807">
  <g id="Group_329" data-name="Group 329" transform="translate(-63.958 -29.989)">
    <path id="Path_5950" data-name="Path 5950" d="M745.629,617.889l-2.8,4.394,1.628-5.721a39.46,39.46,0,0,0-8.2-6.211s-5.86,9.631-4.283,15.555,5.65,7.055,9.994,5.9,7.315-4.163,5.738-10.087A10.751,10.751,0,0,0,745.629,617.889Z" transform="translate(-581.339 -510.742)" fill="#f2f2f2"/>
    <path id="Path_5951" data-name="Path 5951" d="M755.686,621.511l.078.292c.886,3.4,1.019,6.2.392,8.363-.009.032-.019.062-.028.094l-.146-.043-.14-.043c.71-2.345.393-5.309-.379-8.274-.024-.1-.048-.193-.075-.29-.338-1.252-.752-2.5-1.2-3.7-.034-.093-.07-.187-.106-.281-.6-1.579-1.262-3.067-1.873-4.348-.043-.091-.087-.181-.131-.27-1.042-2.165-1.926-3.7-2.125-4.038-.023-.042-.037-.064-.04-.07l.127-.076v0l.128-.076c0,.005.05.081.131.224.307.531,1.123,1.978,2.063,3.923.042.088.086.178.129.269.5,1.04,1.023,2.209,1.524,3.451q.19.467.362.925c.037.094.073.188.107.281Q755.215,619.768,755.686,621.511Z" transform="translate(-595.094 -509.532)" fill="#fff"/>
    <path id="Path_5952" data-name="Path 5952" d="M745.186,621.936c-.093.039-.188.078-.285.115a8.246,8.246,0,0,1-.8.259,8.028,8.028,0,0,1-3.555.135l-.122.28a8.326,8.326,0,0,0,3.754-.126,8.549,8.549,0,0,0,.858-.278c.1-.036.19-.076.284-.116a8.258,8.258,0,0,0,2.12-1.312l-.244-.186a8,8,0,0,1-2,1.229Z" transform="translate(-587.92 -518.57)" fill="#fff"/>
    <path id="Path_5953" data-name="Path 5953" d="M744.1,636.774q-.147.048-.3.088c-.03.01-.062.018-.092.026a8.07,8.07,0,0,1-7.291-1.639c-.035.1-.07.2-.1.3a8.37,8.37,0,0,0,7.472,1.625l.121-.034c.1-.028.2-.058.3-.089a8.326,8.326,0,0,0,3.886-2.644c-.069-.073-.138-.146-.208-.219A8.016,8.016,0,0,1,744.1,636.774Z" transform="translate(-584.817 -528.763)" fill="#fff"/>
    <path id="Path_5954" data-name="Path 5954" d="M743.485,648.565c-.1.036-.2.068-.3.1s-.215.065-.323.094a8.092,8.092,0,0,1-8.995-3.63c-.034.134-.068.267-.1.4a8.389,8.389,0,0,0,9.171,3.518c.108-.029.216-.059.322-.093s.2-.063.3-.1a8.363,8.363,0,0,0,4.641-4.024c-.059-.1-.122-.2-.185-.293A8.066,8.066,0,0,1,743.485,648.565Z" transform="translate(-582.893 -536.586)" fill="#fff"/>
    <path id="Path_5960" data-name="Path 5960" d="M362.21,633.872l-4.961.022,5.423-1.641a37.589,37.589,0,0,0,.757-9.767s-10.736.262-14.672,4.577-2.745,8.161.419,11.047,7.1,3.72,11.039-.595A10.25,10.25,0,0,0,362.21,633.872Z" transform="translate(-256.156 -518.732)" fill="#f2f2f2"/>
    <path id="Path_5961" data-name="Path 5961" d="M367.321,632.7l-.194.213c-2.268,2.461-4.444,4.009-6.5,4.621l-.09.026-.041-.139-.037-.135c2.245-.639,4.458-2.419,6.436-4.564.064-.068.13-.138.193-.21.83-.916,1.616-1.89,2.345-2.868.057-.075.114-.153.171-.23.955-1.3,1.808-2.591,2.521-3.74.051-.081.1-.163.149-.244,1.2-1.95,1.973-3.449,2.143-3.782l.035-.068.126.063h0l.127.064c0,.005-.04.081-.112.22-.268.52-1.007,1.918-2.082,3.674-.049.079-.1.161-.149.242-.578.933-1.244,1.957-1.981,3q-.277.392-.555.767c-.056.078-.113.155-.17.231Q368.475,631.424,367.321,632.7Z" transform="translate(-267.044 -518.036)" fill="#fff"/>
    <path id="Path_5962" data-name="Path 5962" d="M402.109,627.445c-.079-.055-.159-.111-.239-.17a7.872,7.872,0,0,1-.622-.511,7.646,7.646,0,0,1-1.939-2.78l-.287.047a7.93,7.93,0,0,0,2.034,2.944,8.118,8.118,0,0,0,.664.544c.078.058.159.114.239.168a7.867,7.867,0,0,0,2.143,1.023q.011-.149.023-.292A7.618,7.618,0,0,1,402.109,627.445Z" transform="translate(-296.641 -519.882)" fill="#fff"/>
    <path id="Path_5963" data-name="Path 5963" d="M390.573,633.19q-.115-.093-.224-.193c-.023-.019-.046-.04-.068-.06a7.688,7.688,0,0,1-2.44-6.688c-.1.024-.2.047-.3.073a7.973,7.973,0,0,0,2.544,6.825c.029.027.059.054.089.08.075.066.149.13.225.193a7.932,7.932,0,0,0,4.12,1.753c.023-.093.046-.186.068-.28A7.635,7.635,0,0,1,390.573,633.19Z" transform="translate(-287.79 -521.62)" fill="#fff"/>
    <path id="Path_5964" data-name="Path 5964" d="M379.19,638.125c-.079-.061-.157-.124-.234-.188s-.163-.139-.242-.211a7.709,7.709,0,0,1-1.722-9.078c-.125.042-.249.083-.372.127a7.991,7.991,0,0,0,1.9,9.162c.079.072.159.143.241.21s.154.129.233.191a7.968,7.968,0,0,0,5.615,1.648c.049-.1.094-.2.14-.3A7.684,7.684,0,0,1,379.19,638.125Z" transform="translate(-278.914 -523.46)" fill="#fff"/>
    <path id="Path_5965" data-name="Path 5965" d="M235.819,453.149h2.851l1.356-11h-4.207Z" transform="translate(-146.236 -334.116)" fill="#ffb6b6"/>
    <path id="Path_5966" data-name="Path 5966" d="M340.856,684.19h5.614a3.578,3.578,0,0,1,3.578,3.577v.116h-9.192Z" transform="translate(-252 -566.088)" fill="#2f2e41"/>
    <path id="Path_5967" data-name="Path 5967" d="M138.819,453.149h2.851l1.356-11h-4.207Z" transform="translate(-71.791 -334.116)" fill="#ffb6b6"/>
    <path id="Path_5968" data-name="Path 5968" d="M243.856,684.19h5.614a3.578,3.578,0,0,1,3.578,3.577v.116h-9.192Z" transform="translate(-177.555 -566.088)" fill="#2f2e41"/>
    <path id="Path_5969" data-name="Path 5969" d="M141.312,295.2l-1.921,1.768-2.165,21.363-1.458,17.01,4.405.594,10.685-29.065,7.818,28.927,5.271.138-3.5-37.76Z" transform="translate(-69.449 -221.332)" fill="#2f2e41"/>
    <ellipse id="Ellipse_59" data-name="Ellipse 59" cx="5.473" cy="5.473" rx="5.473" ry="5.473" transform="translate(75.675 31.334)" fill="#ffb9b9"/>
    <path id="Path_5970" data-name="Path 5970" d="M285.865,309.519s-.652,1.412,1.957.847c0,0,.979.565.979-.282,0,0,1.3,1.412,1.631.565s.979.282.979.282l.652-1.412.652.847H295s.652-5.648-7.177-5.083-3.978,9.513-3.978,9.513.063-1.606.715-.759S285.865,309.519,285.865,309.519Z" transform="translate(-207.518 -275.254)" fill="#2f2e41"/>
    <path id="Path_5971" data-name="Path 5971" d="M274.889,364.184l-7.717-.483-6.877,1.824,1.042,17.721-1.824,12.509s10.009,6.118,21.369,1.3l-1.079-2.839s-.037-4.345-.949-5.2-.839-7.863-.839-7.863l3.388-13.03Z" transform="translate(-189.571 -320.119)" fill="#3f3d56"/>
    <path id="Path_5972" data-name="Path 5972" d="M242.379,372.106l-1.837-.559a5.336,5.336,0,0,0-4.349,3.35,43.489,43.489,0,0,0-2.418,7.9l9.448.342Z" transform="translate(-169.818 -326.141)" fill="#3f3d56"/>
    <path id="Path_5973" data-name="Path 5973" d="M350.608,444.159l-.306-19.207-4.082.612.9,18.2a2.444,2.444,0,1,0,3.486.4Z" transform="translate(-256.117 -367.127)" fill="#ffb9b9"/>
    <path id="Path_5974" data-name="Path 5974" d="M334.157,384.428l2.3-1.674s4.415,3.453,4.43,11.05l-6.16,1.494-3.483-5.009Z" transform="translate(-244.622 -334.742)" fill="#3f3d56"/>
    <path id="Path_5975" data-name="Path 5975" d="M768.568,453.648h2.992l1.423-11.542h-4.416Z" transform="translate(-593.618 -335.143)" fill="#9e616a"/>
    <path id="Path_5976" data-name="Path 5976" d="M873.6,684.142H879.5a3.756,3.756,0,0,1,3.756,3.755v.122H873.6Z" transform="translate(-699.418 -566.614)" fill="#2f2e41"/>
    <path id="Path_5977" data-name="Path 5977" d="M696.005,444.888l2.853.9,4.838-10.575-4.211-1.332Z" transform="translate(-538.767 -328.927)" fill="#9e616a"/>
    <path id="Path_5978" data-name="Path 5978" d="M798.771,672.961l5.619,1.777h0a3.756,3.756,0,0,1,2.448,4.713l-.037.116-9.2-2.91Z" transform="translate(-641.967 -558.162)" fill="#2f2e41"/>
    <path id="Path_5979" data-name="Path 5979" d="M811.9,472.176l-1.661,4.684-.047,25.284-4.709,17.311,5.781,1.613,6.385-16.323,2.048-14.337,2.7,14.42-.372,17.14h6.065l.458-26.413a57.909,57.909,0,0,0-3.823-21.719h0Z" transform="translate(-647.923 -406.385)" fill="#2f2e41"/>
    <path id="Path_5980" data-name="Path 5980" d="M701.759,195.7h9.8l4.1,4.1,1.224,16.932-14.807,2.382-4.756-16.156,2.59-6.866Z" transform="translate(-539.761 -148.88)" fill="#6c63ff"/>
    <path id="Path_5981" data-name="Path 5981" d="M653.1,176.284l-15.094-5.679-.393-2.348,9.519-8.055,3.168,2.376-5.743,6.288,10.219.389Z" transform="translate(-494.628 -122.048)" fill="#6c63ff"/>
    <circle id="Ellipse_60" data-name="Ellipse 60" cx="2.441" cy="2.441" r="2.441" transform="translate(151.894 36.568)" fill="#9e616a"/>
    <path id="Path_5982" data-name="Path 5982" d="M815.4,343.079l1.1-4.973a6.826,6.826,0,0,1,13.329,2.956l-1.1,4.974a.918.918,0,0,1-1.094.7L816.1,344.173A.918.918,0,0,1,815.4,343.079Z" transform="translate(-655.404 -300.995)" fill="#2f2e41"/>
    <circle id="Ellipse_61" data-name="Ellipse 61" cx="5.005" cy="5.005" r="5.005" transform="translate(161.197 34.147)" fill="#9e616a"/>
    <path id="Path_5983" data-name="Path 5983" d="M813.1,341.768a5.406,5.406,0,0,1,6.441-4.1l.995.221a5.406,5.406,0,0,1,4.1,6.441l-.022.1-2.1-.466-.272-2.167-.589,1.976-1.086-.241-.137-1.093-.3,1-7.056-1.565Z" transform="translate(-653.663 -304.61)" fill="#2f2e41"/>
    <path id="Path_5984" data-name="Path 5984" d="M833.628,357.463a.9.9,0,0,1,.137-.952c1.5-1.771,3.8-5.148,2.344-7.868l-.1-.2,5.687,1.261-1.893,8.538-5.369-.234a.941.941,0,0,1-.162-.021A.913.913,0,0,1,833.628,357.463Z" transform="translate(-669.141 -312.857)" fill="#2f2e41"/>
    <path id="Path_5986" data-name="Path 5986" d="M346.51,406.472H272.729a4.265,4.265,0,0,0-4.265,4.265v17.745a4.265,4.265,0,0,0,4.265,4.265h1.083v3.206a.984.984,0,0,0,1.679.7l3.9-3.9H346.51a4.265,4.265,0,0,0,4.265-4.265V410.737a4.265,4.265,0,0,0-4.265-4.265Z" transform="translate(-196.44 -352.945)" fill="#e6e6e6"/>
    <path id="Path_5987" data-name="Path 5987" d="M336.058,437.829H280.02a2.058,2.058,0,0,1-2.056-2.056V418.028a2.058,2.058,0,0,1,2.056-2.056H353.8a2.058,2.058,0,0,1,2.056,2.056,19.823,19.823,0,0,1-19.8,19.8Z" transform="translate(-203.732 -360.236)" fill="#fff"/>
    <rect id="Rectangle_743" data-name="Rectangle 743" width="33.948" height="2.79" rx="1.395" transform="translate(96.283 59.573)" fill="#6c63ff"/>
    <rect id="Rectangle_744" data-name="Rectangle 744" width="47.201" height="2.79" rx="1.395" transform="translate(89.656 65.153)" fill="#e6e6e6"/>
    <rect id="Rectangle_745" data-name="Rectangle 745" width="47.201" height="2.79" rx="1.395" transform="translate(89.656 70.733)" fill="#e6e6e6"/>
    <path id="Path_5988" data-name="Path 5988" d="M872.712,459.608H816.7a3.238,3.238,0,0,0-3.238,3.238v13.471a3.238,3.238,0,0,0,3.238,3.238h.822v2.434a.747.747,0,0,0,1.275.528l2.962-2.962h50.952a3.238,3.238,0,0,0,3.238-3.238V462.846a3.238,3.238,0,0,0-3.238-3.238Z" transform="translate(-653.957 -396.885)" fill="#e6e6e6"/>
    <path id="Path_5989" data-name="Path 5989" d="M877.8,483H821.79a1.6,1.6,0,0,1-1.595-1.595V467.934a1.6,1.6,0,0,1,1.595-1.595h42.54A15.082,15.082,0,0,1,879.4,481.4,1.6,1.6,0,0,1,877.8,483Z" transform="translate(-659.046 -401.973)" fill="#fff"/>
    <rect id="Rectangle_746" data-name="Rectangle 746" width="25.771" height="2.118" rx="1.059" transform="translate(177.923 67.313)" fill="#6c63ff"/>
    <rect id="Rectangle_747" data-name="Rectangle 747" width="35.832" height="2.118" rx="1.059" transform="translate(172.893 71.549)" fill="#e6e6e6"/>
    <rect id="Rectangle_748" data-name="Rectangle 748" width="35.832" height="2.118" rx="1.059" transform="translate(172.893 75.785)" fill="#e6e6e6"/>
    <path id="Path_5992" data-name="Path 5992" d="M254.578,396.893a2.441,2.441,0,0,0-4.883,0c0,.024,0,.047,0,.071l-4.282,4.282.326-.749-4.883-.233-.712,5.155a2.318,2.318,0,0,0,3.9,1.975l8.441-8.089A2.44,2.44,0,0,0,254.578,396.893Z" transform="translate(-174.693 -343.72)" fill="#ffb9b9"/>
    <path id="Path_5993" data-name="Path 5993" d="M753.726,196.12l15.966,2.27.893,2.207-7.546,9.928-3.608-1.633,4.242-7.384-10.06,1.836Z" transform="translate(-582.314 -149.198)" fill="#6c63ff"/>
    <circle id="Ellipse_62" data-name="Ellipse 62" cx="2.441" cy="2.441" r="2.441" transform="translate(176.059 59.268)" fill="#9e616a"/>
  </g>
</svg>
