<svg xmlns="http://www.w3.org/2000/svg" width="54.48" height="43.207" viewBox="0 0 54.48 43.207">
  <path id="Icon_awesome-ambulance" data-name="Icon awesome-ambulance" d="M53.118,29.7H51.756V20.582a4.033,4.033,0,0,0-1.2-2.861l-8.5-8.43A4.1,4.1,0,0,0,39.166,8.1H35.412V4.051A4.069,4.069,0,0,0,31.326,0H4.086A4.069,4.069,0,0,0,0,4.051v27a4.069,4.069,0,0,0,4.086,4.051H5.448a8.172,8.172,0,0,0,16.344,0h10.9a8.172,8.172,0,0,0,16.344,0h4.086a1.36,1.36,0,0,0,1.362-1.35v-2.7A1.36,1.36,0,0,0,53.118,29.7Zm-39.5,9.452a4.051,4.051,0,1,1,4.086-4.051A4.069,4.069,0,0,1,13.62,39.156ZM25.878,18.228a.68.68,0,0,1-.681.675H20.43v4.726a.68.68,0,0,1-.681.675H15.663a.68.68,0,0,1-.681-.675V18.9H10.215a.68.68,0,0,1-.681-.675V14.177a.68.68,0,0,1,.681-.675h4.767V8.776a.68.68,0,0,1,.681-.675h4.086a.68.68,0,0,1,.681.675V13.5H25.2a.68.68,0,0,1,.681.675ZM40.86,39.156a4.051,4.051,0,1,1,4.086-4.051A4.069,4.069,0,0,1,40.86,39.156ZM47.67,21.6H35.412V12.152h3.754l8.5,8.43Z" fill="#fff"/>
</svg>
