<svg xmlns="http://www.w3.org/2000/svg" width="37.806" height="43.207" viewBox="0 0 37.806 43.207">
  <path id="Icon_awesome-hospital" data-name="Icon awesome-hospital" d="M37.806,41.519v1.688H0V41.519a1.013,1.013,0,0,1,1.013-1.013H2.7V10.127A2.025,2.025,0,0,1,4.726,8.1h7.426V2.025A2.025,2.025,0,0,1,14.177,0h9.452a2.025,2.025,0,0,1,2.025,2.025V8.1H33.08a2.025,2.025,0,0,1,2.025,2.025v30.38h1.688A1.013,1.013,0,0,1,37.806,41.519ZM25.992,16.2H22.616A1.013,1.013,0,0,0,21.6,17.215v3.376A1.013,1.013,0,0,0,22.616,21.6h3.376A1.013,1.013,0,0,0,27,20.591V17.215A1.013,1.013,0,0,0,25.992,16.2ZM11.814,21.6H15.19A1.013,1.013,0,0,0,16.2,20.591V17.215A1.013,1.013,0,0,0,15.19,16.2H11.814A1.013,1.013,0,0,0,10.8,17.215v3.376A1.013,1.013,0,0,0,11.814,21.6Zm8.776,10.8H17.215A1.013,1.013,0,0,0,16.2,33.418v7.089h5.4V33.418A1.013,1.013,0,0,0,20.591,32.405Zm5.4-8.1H22.616A1.013,1.013,0,0,0,21.6,25.317v3.376A1.013,1.013,0,0,0,22.616,29.7h3.376A1.013,1.013,0,0,0,27,28.692V25.317A1.013,1.013,0,0,0,25.992,24.3ZM16.2,25.317A1.013,1.013,0,0,0,15.19,24.3H11.814A1.013,1.013,0,0,0,10.8,25.317v3.376A1.013,1.013,0,0,0,11.814,29.7H15.19A1.013,1.013,0,0,0,16.2,28.692ZM15.359,8.1h2.194V10.3a.506.506,0,0,0,.506.506h1.688a.506.506,0,0,0,.506-.506V8.1h2.194a.506.506,0,0,0,.506-.506V5.907a.506.506,0,0,0-.506-.506H20.253V3.207a.506.506,0,0,0-.506-.506H18.059a.506.506,0,0,0-.506.506V5.4H15.359a.506.506,0,0,0-.506.506V7.595A.506.506,0,0,0,15.359,8.1Z" fill="#fff"/>
</svg>
