<svg xmlns="http://www.w3.org/2000/svg" width="42.43" height="54.362" viewBox="0 0 42.43 54.362">
  <path id="Icon_awesome-user-nurse" data-name="Icon awesome-user-nurse" d="M5.472,30.579h7.8a11.321,11.321,0,0,0,7.942,3.4,11.321,11.321,0,0,0,7.942-3.4h7.8a1.488,1.488,0,0,0,1.288-.808,1.879,1.879,0,0,0,.064-1.653,76.442,76.442,0,0,1-3.992-10.144,27.419,27.419,0,0,1-.98-7.653V5.1L21.215,0,9.092,5.1V10.32a27.383,27.383,0,0,1-.978,7.653A76.534,76.534,0,0,1,4.12,28.118a1.879,1.879,0,0,0,.064,1.653A1.488,1.488,0,0,0,5.472,30.579ZM17.427,7.61a.5.5,0,0,1,.474-.531h2.052v-2.3a.5.5,0,0,1,.474-.531H22a.5.5,0,0,1,.474.531v2.3H24.53A.5.5,0,0,1,25,7.61V9.379a.5.5,0,0,1-.474.531H22.477v2.3a.5.5,0,0,1-.474.531H20.426a.5.5,0,0,1-.474-.531v-2.3H17.9a.5.5,0,0,1-.474-.531Zm-3.788,9.379H28.792v3.4c0,4.691-3.392,8.494-7.577,8.494s-7.577-3.8-7.577-8.494ZM30.251,33.976,21.215,44.1,12.179,33.976C5.408,34.306,0,40.517,0,48.182c0,3.413,2.468,6.181,5.513,6.181h31.4c3.045,0,5.513-2.767,5.513-6.181C42.43,40.517,37.022,34.306,30.251,33.976Z" fill="#fff"/>
</svg>
