<svg xmlns="http://www.w3.org/2000/svg" width="118.294" height="104.12" viewBox="0 0 118.294 104.12">
  <g id="Group_328" data-name="Group 328" transform="translate(0 3.454)">
    <path id="Path_704" data-name="Path 704" d="M562.3,360.633a2.881,2.881,0,0,0-.294.347l-13.587-.48-1.554-2.914-4.7,1.77,2.25,5.428a2.193,2.193,0,0,0,2.265,1.34l15.375-1.688a2.879,2.879,0,1,0,.25-3.8Z" transform="translate(-498.483 -332.44)" fill="#a0616a"/>
    <circle id="Ellipse_55" data-name="Ellipse 55" cx="7.934" cy="7.934" r="7.934" transform="translate(31.79 0.252)" fill="#2f2e41"/>
    <ellipse id="Ellipse_56" data-name="Ellipse 56" cx="3.283" cy="2.462" rx="3.283" ry="2.462" transform="translate(28.372 2.747) rotate(-45)" fill="#2f2e41"/>
    <ellipse id="Ellipse_57" data-name="Ellipse 57" cx="2.462" cy="3.283" rx="2.462" ry="3.283" transform="translate(40.316 1.075) rotate(-66.869)" fill="#2f2e41"/>
    <path id="Path_5928" data-name="Path 5928" d="M536.312,340.6l-6.088,2.723a1.321,1.321,0,0,1-1.81-.849l-1.8-6.4a3.667,3.667,0,1,1,6.7-2.975l3.564,5.588a1.321,1.321,0,0,1-.574,1.915Z" transform="translate(-485.849 -312.651)" fill="#ccc"/>
    <path id="Path_5929" data-name="Path 5929" d="M450.584,384.2a2.945,2.945,0,0,0,2.041-4.028l10.857-24.528-6.211-1.564-8.719,24.6a2.961,2.961,0,0,0,2.032,5.519Z" transform="translate(-426.142 -330.373)" fill="#a0616a"/>
    <path id="Path_5930" data-name="Path 5930" d="M87.453,344.78l3.158,1.15L96.549,334.3l-4.661-1.7Z" transform="translate(-65.887 -250.906)" fill="#a0616a"/>
    <path id="Path_5931" data-name="Path 5931" d="M0,0H10.563V4.081H4.081A4.081,4.081,0,0,1,0,0H0Z" transform="matrix(-0.94, -0.342, 0.342, -0.94, 29.881, 100.175)" fill="#2f2e41"/>
    <path id="Path_5932" data-name="Path 5932" d="M463.6,515.064a1.309,1.309,0,0,1-.56-.126l-3.629-1.719a1.315,1.315,0,0,1-.677-1.642l10.243-28.365a1.32,1.32,0,0,1,2.374-.231l5.418,9.03a1.322,1.322,0,0,1,.014,1.335L464.756,514.4A1.327,1.327,0,0,1,463.6,515.064Z" transform="translate(-435.041 -427.885)" fill="#2f2e41"/>
    <circle id="Ellipse_58" data-name="Ellipse 58" cx="6.733" cy="6.733" r="6.733" transform="translate(33.168 3.347)" fill="#a0616a"/>
    <path id="Path_5933" data-name="Path 5933" d="M506.9,349.11l-11.922-3.279L488.64,333.15a4,4,0,0,1,3.574-5.783H501.7a3.991,3.991,0,0,1,2.667,1.02c2.544,2.279,7.89,8.851,2.588,20.608Z" transform="translate(-457.471 -310.167)" fill="#ccc"/>
    <path id="Path_5934" data-name="Path 5934" d="M483.927,342.958l-6.04-2.827a1.321,1.321,0,0,1-.541-1.925l3.671-5.544a3.667,3.667,0,1,1,6.634,3.129l-1.9,6.35a1.32,1.32,0,0,1-1.825.817Z" transform="translate(-448.783 -312.382)" fill="#ccc"/>
    <path id="Path_5935" data-name="Path 5935" d="M166.59,354.3h3.361l1.6-12.964h-4.961Z" transform="translate(-125.357 -257.251)" fill="#a0616a"/>
    <path id="Path_5936" data-name="Path 5936" d="M0,0H10.563V4.081H4.081A4.081,4.081,0,0,1,0,0H0Z" transform="translate(50.94 100.175) rotate(179.997)" fill="#2f2e41"/>
    <path id="Path_5937" data-name="Path 5937" d="M500.322,452.567a1.314,1.314,0,0,1-1.288-1.046c-.966-4.552-5.984-27.867-9.9-39.877-3.984-12.219,2.8-17.784,4.2-18.776a1.031,1.031,0,0,0,.343-.415l1.018-2.239a1.325,1.325,0,0,1,1.205-.775h.008c7.629.046,10.194,2.45,10.942,3.482A1.305,1.305,0,0,1,507.06,394l-4.827,19.915a1.028,1.028,0,0,0-.02.377l4.8,36.16a1.321,1.321,0,0,1-1.158,1.486l-5.381.621A1.356,1.356,0,0,1,500.322,452.567Z" transform="translate(-457.165 -360.453)" fill="#2f2e41"/>
    <path id="Path_5938" data-name="Path 5938" d="M495.82,270.015a9.158,9.158,0,0,0,5.234,1.617,5.613,5.613,0,0,1-2.224.915,18.466,18.466,0,0,0,7.543.042,4.881,4.881,0,0,0,1.579-.542,2,2,0,0,0,.975-1.3,2.693,2.693,0,0,0-1.337-2.383,9.86,9.86,0,0,0-8.286-1.656,4.538,4.538,0,0,0-2.454,1.387,2.235,2.235,0,0,0-.206,2.655Z" transform="translate(-462.947 -264.17)" fill="#2f2e41"/>
    <path id="Path_5939" data-name="Path 5939" d="M314.177,307.116v25.7l-6.666-.193h-34.1V311.656l9.95-4.54Z" transform="translate(-210.655 -232.409)" fill="#ccc"/>
    <path id="Path_5940" data-name="Path 5940" d="M314.177,307.116v.08l-2.393,1.6-4.273,2.859h-34.1l9.95-4.54Z" transform="translate(-210.655 -231.006)" opacity="0.1"/>
    <path id="Path_5941" data-name="Path 5941" d="M404.468,307.116v25.7l-6.666-.193.048-21.012,4.224-2.81,2.354-1.682Z" transform="translate(-300.945 -232.409)" opacity="0.1"/>
    <path id="Path_5942" data-name="Path 5942" d="M334.352,314.856h-20.77l1.546-.869h19.9Z" transform="translate(-237.232 -235.927)" fill="#fff"/>
    <path id="Path_717" data-name="Path 717" d="M480.046,649.451h-117.8a.275.275,0,0,1,0-.548h117.8a.275.275,0,0,1,0,.548Z" transform="translate(-362 -548.786)" fill="#e6e6e6"/>
    <path id="Path_5943" data-name="Path 5943" d="M645.006,308.063h-22.48a2.47,2.47,0,0,1-2.467-2.467V281.2a2.47,2.47,0,0,1,2.467-2.467h22.48a2.47,2.47,0,0,1,2.467,2.467v24.4A2.47,2.47,0,0,1,645.006,308.063Zm-22.48-28.785a1.921,1.921,0,0,0-1.919,1.919v24.4a1.921,1.921,0,0,0,1.919,1.919h22.48a1.921,1.921,0,0,0,1.919-1.919V281.2a1.921,1.921,0,0,0-1.919-1.919Z" transform="translate(-557.686 -273.113)" fill="#3f3d56"/>
    <path id="Path_5944" data-name="Path 5944" d="M636.5,303.389h-2.193a1.235,1.235,0,0,1-1.234-1.234v-2.193a1.235,1.235,0,0,1,1.234-1.234H636.5a1.235,1.235,0,0,1,1.234,1.234v2.193a1.235,1.235,0,0,1-1.234,1.234Z" transform="translate(-565.965 -287.63)" fill="#6c63ff"/>
    <path id="Path_5945" data-name="Path 5945" d="M636.5,328.389h-2.193a1.235,1.235,0,0,1-1.234-1.234v-2.193a1.235,1.235,0,0,1,1.234-1.234H636.5a1.235,1.235,0,0,1,1.234,1.234v2.193A1.235,1.235,0,0,1,636.5,328.389Z" transform="translate(-565.965 -307.18)" fill="#ccc"/>
    <path id="Path_5946" data-name="Path 5946" d="M674.756,305.586H664.517a.823.823,0,0,1-.822-.822v-.349a.823.823,0,0,1,.822-.822h10.239a.823.823,0,0,1,.823.822v.349a.823.823,0,0,1-.822.822Z" transform="translate(-589.493 -291.16)" fill="#6c63ff"/>
    <path id="Path_5947" data-name="Path 5947" d="M674.756,330.586H664.517a.823.823,0,0,1-.822-.822v-.349a.823.823,0,0,1,.822-.822h10.239a.823.823,0,0,1,.823.822v.349a.823.823,0,0,1-.822.822Z" transform="translate(-589.493 -310.761)" fill="#ccc"/>
    <path id="Path_5948" data-name="Path 5948" d="M636.5,353.389h-2.193a1.235,1.235,0,0,1-1.234-1.234v-2.193a1.235,1.235,0,0,1,1.234-1.234H636.5a1.235,1.235,0,0,1,1.234,1.234v2.193A1.235,1.235,0,0,1,636.5,353.389Z" transform="translate(-565.965 -325.776)" fill="#ccc"/>
    <path id="Path_5949" data-name="Path 5949" d="M674.756,355.586H664.517a.823.823,0,0,1-.822-.822v-.349a.823.823,0,0,1,.822-.822h10.239a.823.823,0,0,1,.823.822v.349a.823.823,0,0,1-.822.822Z" transform="translate(-589.493 -329.346)" fill="#ccc"/>
  </g>
</svg>
