<svg xmlns="http://www.w3.org/2000/svg" xmlns:xlink="http://www.w3.org/1999/xlink" width="76" height="73.732" viewBox="0 0 76 73.732">
  <defs>
    <filter id="Icon_ionic-md-arrow-round-back" x="0" y="0" width="76" height="73.732" filterUnits="userSpaceOnUse">
      <feOffset dx="1" dy="1" input="SourceAlpha"/>
      <feGaussianBlur stdDeviation="6" result="blur"/>
      <feFlood flood-opacity="0.161"/>
      <feComposite operator="in" in2="blur"/>
      <feComposite in="SourceGraphic"/>
    </filter>
  </defs>
  <g transform="matrix(1, 0, 0, 1, 0, 0)" filter="url(#Icon_ionic-md-arrow-round-back)">
    <path id="Icon_ionic-md-arrow-round-back-2" data-name="Icon ionic-md-arrow-round-back" d="M42.158,21.559H17.833l9.434-9.025a3.76,3.76,0,0,0,0-5.138,3.361,3.361,0,0,0-4.91,0L6.648,22.627a3.462,3.462,0,0,0-1.023,2.546v.045a3.462,3.462,0,0,0,1.023,2.546L22.346,43a3.361,3.361,0,0,0,4.91,0,3.76,3.76,0,0,0,0-5.138l-9.434-9.025H42.147A3.559,3.559,0,0,0,45.625,25.2,3.521,3.521,0,0,0,42.158,21.559Z" transform="translate(11.38 10.67)" fill="rgba(255,255,255,0.95)"/>
  </g>
</svg>
